<?xml version="1.0" encoding="UTF-8" standalone="no"?>
<!-- Created with Inkscape (http://www.inkscape.org/) -->

<svg
   xmlns:dc="http://purl.org/dc/elements/1.1/"
   xmlns:cc="http://creativecommons.org/ns#"
   xmlns:rdf="http://www.w3.org/1999/02/22-rdf-syntax-ns#"
   xmlns:svg="http://www.w3.org/2000/svg"
   xmlns="http://www.w3.org/2000/svg"
   xmlns:sodipodi="http://sodipodi.sourceforge.net/DTD/sodipodi-0.dtd"
   xmlns:inkscape="http://www.inkscape.org/namespaces/inkscape"
   id="svg3020"
   version="1.1"
   inkscape:version="0.47 r22583"
   width="256"
   height="256"
   sodipodi:docname="shaarli-2.png">
  <metadata
     id="metadata3026">
    <rdf:RDF>
      <cc:Work
         rdf:about="">
        <dc:format>image/svg+xml</dc:format>
        <dc:type
           rdf:resource="http://purl.org/dc/dcmitype/StillImage" />
        <dc:title></dc:title>
      </cc:Work>
    </rdf:RDF>
  </metadata>
  <defs
     id="defs3024">
    <inkscape:perspective
       sodipodi:type="inkscape:persp3d"
       inkscape:vp_x="0 : 0.5 : 1"
       inkscape:vp_y="0 : 1000 : 0"
       inkscape:vp_z="1 : 0.5 : 1"
       inkscape:persp3d-origin="0.5 : 0.33333333 : 1"
       id="perspective3028" />
  </defs>
  <sodipodi:namedview
     pagecolor="#ffffff"
     bordercolor="#666666"
     borderopacity="1"
     objecttolerance="10"
     gridtolerance="10"
     guidetolerance="10"
     inkscape:pageopacity="0"
     inkscape:pageshadow="2"
     inkscape:window-width="1024"
     inkscape:window-height="576"
     id="namedview3022"
     showgrid="false"
     inkscape:zoom="0.921875"
     inkscape:cx="143.66461"
     inkscape:cy="116.51584"
     inkscape:window-x="0"
     inkscape:window-y="-1"
     inkscape:window-maximized="1"
     inkscape:current-layer="svg3020" />
  <path
     style="fill:#000000;fill-opacity:1;stroke:none"
     d="m 180.31579,217.63621 c -5.52894,-1.74238 -16.20067,-8.03598 -25.93814,-15.2969 -7.11177,-5.30303 -12.62394,-10.63838 -20.63536,-19.97343 -1.51675,-1.76734 -3.09789,-3.21334 -3.51366,-3.21334 -0.41577,0 -2.40827,3.4875 -4.42778,7.75 -4.87304,10.28532 -10.01577,16.74094 -17.30085,21.71763 -9.054677,6.18557 -17.674977,8.53237 -31.341167,8.53237 -10.15204,0 -11.82281,-0.26347 -16.64545,-2.62488 -11.71758,-5.73754 -16.5212,-12.25672 -17.22382,-23.37512 -0.43084,-6.8176 0.62342,-10.98606 7.58738,-30 3.6705,-10.02168 3.76875,-11 1.10467,-11 -3.59124,0 -17.02685,-3.98923 -22.10871,-6.5644 -7.12282,-3.60941 -12.41049,-8.79184 -15.58524,-15.27506 -2.48109,-5.06668 -2.76163,-6.67765 -2.67409,-15.35543 0.0846,-8.39046 0.46179,-10.43886 2.80306,-15.224247 3.51989,-7.19439 9.13522,-11.884789 18.50641,-15.458136 9.44782,-3.602567 17.92676,-5.080054 34.71479,-6.049184 10.26246,-0.592426 13.87367,-1.187424 16.5,-2.7186 l 3.36217,-1.960187 0.68176,-10.947376 C 90.385933,25.206733 103.85544,9.7978877 132,10.472714 c 11.22714,0.269195 18.06605,4.241495 24.41272,14.179829 6.07538,9.513511 10.71424,25.21563 12.3791,41.902108 l 0.70818,7.097892 7,0.667823 c 21.22446,2.024883 41.77135,9.506749 51.17828,18.635867 6.2015,6.01835 7.74423,10.171847 8.15019,21.942757 0.30856,8.94696 0.0752,10.82106 -1.83992,14.77719 -4.07518,8.41822 -13.65389,13.27283 -27.95751,14.16925 l -8.53104,0.53464 4.39875,4.63624 c 18.31227,19.3009 24.23574,38.33002 17.09709,54.92426 -2.67543,6.21922 -9.12525,12.33495 -14.80268,14.03595 -5.1084,1.53051 -18.54867,1.33895 -23.87737,-0.34031 z m 21.78499,-2.62177 c 4.17899,-1.39918 9.42529,-5.20896 11.46969,-8.3291 C 216.15619,202.73902 219,193.88598 219,189.78268 c 0,-10.60431 -6.56007,-23.77957 -17.76846,-35.68618 -10.72316,-11.39117 -10.50656,-12.35751 2.97127,-13.25569 11.96844,-0.7976 18.09176,-2.92922 23.25223,-8.09446 5.39509,-5.40007 6.8677,-11.31629 5.35449,-21.51165 C 231.46358,102.16627 227.67974,96.222823 220,91.114203 209.73313,84.284606 191.40178,78.559818 176.27071,77.457769 c -9.32653,-0.679283 -8.54804,0.209139 -10.34446,-11.805226 -3.05678,-20.443547 -8.22166,-35.663017 -14.77357,-43.533622 -1.61786,-1.943492 -5.29503,-4.814532 -8.17147,-6.380089 -4.5809,-2.493236 -6.23825,-2.83749 -13.35556,-2.77412 -9.20842,0.08199 -14.93959,1.765882 -21.75504,6.391927 -10.613657,7.204108 -16.924007,24.253385 -16.957327,45.815196 -0.005,3.585611 -0.3258,7.016482 -0.71168,7.624157 -1.83407,2.88824 -7.88156,5.349882 -13.2016,5.373739 -6.61683,0.02967 -26.35998,2.355464 -34,4.005285 -12.99823,2.806895 -24.5341,11.203907 -26.95798,19.622824 -2.96752,10.3072 -2.07306,20.13735 2.4929,27.397 4.81538,7.65621 13.84238,13.29764 25.46508,15.91442 13.26678,2.98694 14,3.25681 14,5.153 0,1.64873 -1.62524,6.65566 -4.02186,12.39028 -2.74019,6.55671 -6.32588,17.69947 -7.07951,22 -2.19923,12.54972 4.1687,22.46552 17.8716,27.82868 8.63088,3.37803 27.5089,1.36556 37.329457,-3.97945 7.59772,-4.1352 16.15016,-13.8967 20.90633,-23.86185 3.90486,-8.18148 4.17291,-8.48738 7.43725,-8.48738 2.89731,0 3.90464,0.706 6.97476,4.88834 8.99343,12.2515 33.33332,30.23028 45.58197,33.66935 5.76669,1.61912 14.74632,1.76214 19.10078,0.30421 z M 76.888053,187.6529 c -7.58221,-4.12086 -5.76654,-14.89795 5.7282,-34.00036 6.16646,-10.24767 12.71108,-24.20459 12.09849,-25.80098 -0.90121,-2.34852 -11.2997,-3.69902 -28.48152,-3.69902 l -16.43322,0 -3.4,-3.4 c -2.15576,-2.15576 -3.4,-4.36965 -3.4,-6.04966 0,-3.91322 2.7216,-8.48384 5.79789,-9.73691 1.48616,-0.60536 9.45211,-1.45881 17.70211,-1.89656 43.351447,-2.30025 41.598757,-2.006 43.543067,-7.310237 0.62631,-1.70865 1.50858,-11.65663 1.96059,-22.10663 0.89907,-20.785484 2.04425,-26.336393 6.32326,-30.650134 4.62996,-4.66753 13.40518,-3.033253 17.043,3.174047 2.73247,4.66247 4.61494,19.399286 4.62301,36.190903 0.008,17.354764 -0.39195,16.785184 11.79611,16.785184 18.9947,0 40.42308,2.605107 46.43196,5.644867 8.86562,4.48493 8.92187,13.06912 0.10759,16.4203 -4.34105,1.65046 -23.02239,2.71539 -38.07859,2.17066 l -14.25,-0.51556 -0.004,2.38986 c -0.003,1.7794 4.65887,6.97528 18.25,20.3407 10.03969,9.87295 19.03851,19.09795 19.99739,20.5 3.48572,5.09673 1.66922,14.00875 -3.38844,16.62417 -7.39258,3.82285 -13.15268,-0.0658 -35.91188,-24.244 -18.23715,-19.37423 -20.98838,-21.47356 -23.69573,-18.081 -0.54864,0.6875 -3.36801,5.75 -6.26525,11.25 -10.00972,19.002 -17.935417,29.61189 -25.887707,34.65509 -4.94128,3.13366 -8.24569,3.49784 -12.20635,1.34527 z m 10.03156,-3.95879 c 6.40602,-3.31268 17.799377,-19.08256 26.983127,-37.34813 4.37058,-8.69266 6.04403,-10.19344 11.36624,-10.19344 3.09738,0 4.71851,1.40377 18.1888,15.75 24.14099,25.71083 29.74158,30.2653 34.83543,28.32862 2.91388,-1.10785 5.16393,-6.12107 4.29721,-9.57438 -0.36858,-1.46856 -8.85465,-10.67973 -20.17658,-21.90061 l -19.54045,-19.36603 0.31331,-4.3688 0.3133,-4.3688 22.68136,-0.15909 c 28.57784,-0.20044 37.26286,-2.21522 35.36226,-8.20346 -1.93371,-6.0926 -20.39623,-10.12869 -46.35936,-10.13463 -11.99492,-0.003 -15.78053,-0.77168 -17.42242,-3.538847 -0.40598,-0.68424 -0.91691,-10.406045 -1.1354,-21.604018 -0.31064,-15.921589 -0.76984,-21.395833 -2.10647,-25.111813 -3.95504,-10.995422 -13.5048,-11.674555 -17.55095,-1.248139 -0.64031,1.65 -1.59474,12 -2.12096,23 -1.11829,23.37658 -1.14921,23.57601 -4.20589,27.129607 l -2.34355,2.72455 -27.941557,1.67655 c -16.74894,1.00497 -28.84851,2.16194 -30.20571,2.88829 -4.82343,2.58142 -4.58584,9.5264 0.41328,12.081 2.24802,1.14876 7.31169,1.54946 21.6247,1.71123 19.83345,0.22416 25.01873,1.21822 26.22794,5.02812 0.7415,2.33626 -5.55118,16.34434 -12.58955,28.02549 -4.82643,8.01014 -8.903,16.9639 -10.1824,22.36456 -0.43669,1.84342 -0.007,3.41275 1.43847,5.25 2.34048,2.97544 5.58745,3.35909 9.83582,1.16217 z"
     id="path3032" />
</svg>
