<?xml version="1.0" encoding="UTF-8" standalone="no"?>
<!-- Created with Inkscape (http://www.inkscape.org/) -->

<svg
   xmlns:dc="http://purl.org/dc/elements/1.1/"
   xmlns:cc="http://creativecommons.org/ns#"
   xmlns:rdf="http://www.w3.org/1999/02/22-rdf-syntax-ns#"
   xmlns:svg="http://www.w3.org/2000/svg"
   xmlns="http://www.w3.org/2000/svg"
   xmlns:xlink="http://www.w3.org/1999/xlink"
   xmlns:sodipodi="http://sodipodi.sourceforge.net/DTD/sodipodi-0.dtd"
   xmlns:inkscape="http://www.inkscape.org/namespaces/inkscape"
   id="svg3020"
   version="1.1"
   inkscape:version="0.48.2 r9819"
   width="256"
   height="256"
   sodipodi:docname="logo.svg.2012_01_27_23_50_41.0.svg">
  <metadata
     id="metadata3026">
    <rdf:RDF>
      <cc:Work
         rdf:about="">
        <dc:format>image/svg+xml</dc:format>
        <dc:type
           rdf:resource="http://purl.org/dc/dcmitype/StillImage" />
        <dc:title />
      </cc:Work>
    </rdf:RDF>
  </metadata>
  <defs
     id="defs3024">
    <linearGradient
       id="linearGradient3754">
      <stop
         style="stop-color:#54ff2e;stop-opacity:1;"
         offset="0"
         id="stop3756" />
      <stop
         style="stop-color:#d4ff11;stop-opacity:1;"
         offset="1"
         id="stop3758" />
    </linearGradient>
    <inkscape:perspective
       sodipodi:type="inkscape:persp3d"
       inkscape:vp_x="0 : 0.5 : 1"
       inkscape:vp_y="0 : 1000 : 0"
       inkscape:vp_z="1 : 0.5 : 1"
       inkscape:persp3d-origin="0.5 : 0.33333333 : 1"
       id="perspective3028" />
    <radialGradient
       inkscape:collect="always"
       xlink:href="#linearGradient3754"
       id="radialGradient3764"
       cx="123.71859"
       cy="114.60418"
       fx="123.71859"
       fy="114.60418"
       r="113.34596"
       gradientTransform="matrix(0.98646567,0.01691792,-0.01591788,0.92815478,6.1833136,11.893434)"
       gradientUnits="userSpaceOnUse" />
  </defs>
  <sodipodi:namedview
     pagecolor="#ffffff"
     bordercolor="#666666"
     borderopacity="1"
     objecttolerance="10"
     gridtolerance="10"
     guidetolerance="10"
     inkscape:pageopacity="0"
     inkscape:pageshadow="2"
     inkscape:window-width="1920"
     inkscape:window-height="1148"
     id="namedview3022"
     showgrid="false"
     inkscape:zoom="2.6074563"
     inkscape:cx="6.4641088"
     inkscape:cy="103.72795"
     inkscape:window-x="-8"
     inkscape:window-y="-8"
     inkscape:window-maximized="1"
     inkscape:current-layer="svg3020" />
  <path
     style="fill:url(#radialGradient3764);fill-opacity:1;fill-rule:nonzero;stroke:#000000;stroke-opacity:1"
     d="m 126.41195,15.275467 c -28.68269,0.896897 -34.46328,72.099296 -34.46328,72.099296 0,0 -71.889107,1.875762 -76.127733,24.912107 -4.238626,23.03635 49.102107,40.05422 49.102107,40.05422 0,0 -16.948434,57.25857 1.962968,68.06203 18.911401,10.80346 41.483398,-15.45845 63.142428,-36.0907 18.5537,21.9698 62.61742,53.79986 78.87227,31.84937 16.25484,-21.95048 -23.86617,-66.15882 -23.86617,-66.15882 0,0 56.9099,-11.5057 53.5478,-38.77282 C 233.37119,87.229757 170.53985,87.97984 170.53985,87.97984 156.529,56.234786 155.09465,14.378571 126.41195,15.275467 z m 2.05391,35.039766 c 19.59567,-0.302045 9.4712,47.357242 25.41508,58.156247 15.94388,10.79901 50.66959,-3.73205 59.49101,5.20461 7.18251,22.79107 -41.46596,10.46873 -48.85226,25.67594 -9.69851,19.96765 30.85642,46.99402 15.87531,54.8607 -14.9811,7.86668 -33.35971,-40.88469 -51.58242,-41.01398 -18.22271,-0.12929 -34.924686,53.41928 -48.221721,43.27273 -13.297035,-10.14655 23.683251,-45.62303 17.68453,-55.4575 -5.998722,-9.83447 -51.417543,-5.11986 -51.002654,-21.92015 0.414889,-16.8003 51.52535,1.71301 62.724375,-11.4036 11.19902,-13.116612 -1.12692,-57.072952 18.46875,-57.374997 z"
     id="path7"
     inkscape:connector-curvature="0"
     inkscape:transform-center-x="54.459207"
     inkscape:transform-center-y="38.351554"
     sodipodi:nodetypes="zczczczccczzscszzzszzz" />
  <path
     style="fill:none;stroke:#000000;stroke-width:1px;stroke-linecap:butt;stroke-linejoin:miter;stroke-opacity:1"
     d="m 132.31286,104.51137 c 19.96912,-26.945662 78.50975,-13.052993 89.35912,2.6846 13.76503,19.96691 14.25494,36.59719 9.9714,51.7746"
     id="path3765"
     inkscape:connector-curvature="0"
     sodipodi:nodetypes="csc" />
  <path
     style="fill:none;stroke:#000000;stroke-width:1px;stroke-linecap:butt;stroke-linejoin:miter;stroke-opacity:1"
     d="m 146.88645,140.94534 c 2.13465,9.64708 -6.08305,12.98633 -11.12195,18.02523 -3.3972,3.3972 -2.33321,9.62 -5.75273,13.03953 -4.85962,4.85961 -8.26592,14.69996 -13.03953,21.86038 -6.96646,10.44969 -29.676905,29.26463 -41.036164,34.13289 -8.044444,3.44761 -13.629407,11.88898 -22.627417,11.88898"
     id="path3767"
     inkscape:connector-curvature="0" />
  <path
     style="fill:none;stroke:#000000;stroke-width:1px;stroke-linecap:butt;stroke-linejoin:miter;stroke-opacity:1"
     d="M 133.07989,133.65854 C 44.393902,140.63863 14.665016,122.32573 24.92851,53.120282"
     id="path3769"
     inkscape:connector-curvature="0"
     sodipodi:nodetypes="cc" />
</svg>
