<?xml version="1.0" encoding="utf-8"?>
<!-- Generator: Adobe Illustrator 14.0.0, SVG Export Plug-In . SVG Version: 6.00 Build 43363)  -->
<!DOCTYPE svg PUBLIC "-//W3C//DTD SVG 1.1//EN" "http://www.w3.org/Graphics/SVG/1.1/DTD/svg11.dtd">
<svg version="1.1"
	 id="svg3771" xmlns:dc="http://purl.org/dc/elements/1.1/" xmlns:cc="http://creativecommons.org/ns#" xmlns:rdf="http://www.w3.org/1999/02/22-rdf-syntax-ns#" xmlns:svg="http://www.w3.org/2000/svg" xmlns:sodipodi="http://sodipodi.sourceforge.net/DTD/sodipodi-0.dtd" xmlns:inkscape="http://www.inkscape.org/namespaces/inkscape" sodipodi:docname="logo2.svg" inkscape:version="0.48.2 r9819"
	 xmlns="http://www.w3.org/2000/svg" xmlns:xlink="http://www.w3.org/1999/xlink" x="0px" y="0px" width="64px" height="64px"
	 viewBox="0 0 64 64" enable-background="new 0 0 64 64" xml:space="preserve">
<g id="layer1" inkscape:label="Layer 1" inkscape:groupmode="layer">
	<path id="path4416" inkscape:connector-curvature="0" fill="#FF0000" d="M42.406,13.5c-0.967-3.401-2.117-5.932-3.906-7.438
		c-2.037-1.714-3.539-2.099-6.844-1.781c-5.542,0.533-8.608,4.364-9.625,12.062c-0.633,4.794-1.003,5.156-5.594,5.156
		c-5.797,0-11.157,1.961-13.188,4.812c-0.45,0.632-0.786,1.452-1.031,2.344c0.852,0.597,1.718,1.289,2.562,1.844
		c2.755,1.81,5.48,3.383,8.094,4.594c1.307,0.605,2.593,1.121,3.844,1.531s2.475,0.721,3.656,0.906s2.308,0.227,3.406,0.156
		c0.197-0.013,0.369-0.104,0.562-0.125c0.481-1.228,0.822-2.275,0.688-2.625c-0.439-1.145-1.985-1.497-7.344-1.625
		c-5.036-0.12-5.969-0.35-5.969-1.562c0-1.286,1.641-1.672,8.656-2.031c8.915-0.456,8.776-0.338,9.219-8.438
		c0.339-6.202,0.846-7.656,2.656-7.656c1.357,0,1.893,1.999,2.219,6.281c0.12-0.206,0.211-0.425,0.344-0.625
		c0.454-0.685,0.98-1.354,1.594-1.969c1.227-1.23,2.797-2.33,4.781-3.344C41.518,13.8,42.052,13.665,42.406,13.5z"/>
	<path id="path4419" inkscape:connector-curvature="0" fill="#00C400" d="M43.625,57.719c0.078-2.272,0.114-4.545-0.125-6.688
		c-0.17-1.527-0.666-2.883-1.031-4.312c-1.06-0.895-1.928-1.596-3.875-3.625c-7.058-7.355-7.691-7.419-10.75-1.312
		c-0.732,1.463-2.314,3.875-3.5,5.375c-1.559,1.973-2.528,2.719-3.469,2.719c-1.082,0-1.281-0.25-1.281-1.5
		c0-0.827,0.719-2.755,1.594-4.312c1.541-2.742,2.517-4.868,3.156-6.5c-0.194,0.021-0.366,0.112-0.562,0.125
		c-1.098,0.07-2.225,0.029-3.406-0.156s-2.405-0.496-3.656-0.906s-2.537-0.926-3.844-1.531c-2.614-1.211-5.338-2.784-8.094-4.594
		c-0.845-0.555-1.711-1.247-2.562-1.844c-0.591,2.152-0.585,4.775,0.188,6.625c1.012,2.422,4.318,4.871,7.719,5.688
		c1.44,0.346,2.625,0.809,2.625,1.062s-0.599,2.073-1.344,4.031c-2.341,6.151-1.288,9.793,3.562,12.281
		c3.521,1.806,9.635,0.953,13.344-1.875c1.009-0.77,2.542-2.695,3.438-4.281l1.656-2.875l2.656,2.719
		C38.343,54.36,41.096,56.311,43.625,57.719z"/>
	<path id="path3804" inkscape:connector-curvature="0" fill="#EEEE00" d="M42.406,13.5c-0.354,0.165-0.889,0.3-1.219,0.469
		c-1.984,1.014-3.555,2.113-4.781,3.344c-0.613,0.615-1.14,1.284-1.594,1.969c-0.133,0.2-0.224,0.419-0.344,0.625
		c0.055,0.714,0.18,0.933,0.219,1.812c0.145,3.202,0.469,6.089,0.719,6.406c0.254,0.32,3.128,0.727,6.469,0.906
		c7.514,0.403,11.455,1.835,9.125,3.344c-0.361,0.234-3.742,0.543-7.5,0.688c-6.654,0.256-6.832,0.314-7,1.5
		c-0.135,0.946,1.041,2.441,5.25,6.719c4.554,4.627,5.321,5.647,4.844,6.406c-0.809,1.285-2.103,0.74-4.125-0.969
		c0.365,1.43,0.861,2.785,1.031,4.312c0.239,2.143,0.203,4.415,0.125,6.688c0.877,0.488,1.843,1.139,2.594,1.406
		c2.676,0.954,4.469,0.919,7-0.094c5.724-2.29,5.957-10.504,0.5-16.719c-1.776-2.023-1.686-2.124,1.531-2.656
		c2.773-0.459,5.635-2.861,6.125-5.094c0.193-0.882,0.2-2.685,0-4.031c-0.691-4.648-6.244-8.229-14.656-9.438l-2.594-0.375
		l-0.906-4.5C42.99,15.089,42.672,14.432,42.406,13.5z"/>
</g>
<g id="Glows" inkscape:label="IntersectLayer" inkscape:groupmode="layer">
	<path id="path4429" inkscape:connector-curvature="0" sodipodi:nodetypes="zccz" fill="#FF7070" d="M36.988,5.32
		c2.715,1.812,4.482,4.46,3.593,5.142c-4.198-4.419-9.874-4.317-12.439-3.525C27.579,4.713,34.273,3.508,36.988,5.32z"/>
	<path id="path4431" inkscape:connector-curvature="0" sodipodi:nodetypes="ccccc" fill="#FFFF79" d="M60.75,30.522
		c-0.477,0.477-3.51,0.269-4,0.023c-2.348-3.305-9.041-7.202-14-7.864c-1.098-0.098-1.531-1.764,0.795-1.182
		C51.568,21.638,60.497,26.072,60.75,30.522z"/>
</g>
</svg>
