<?xml version="1.0" encoding="UTF-8" standalone="no"?>
<!-- Created with Inkscape (http://www.inkscape.org/) -->

<svg
   xmlns:dc="http://purl.org/dc/elements/1.1/"
   xmlns:cc="http://creativecommons.org/ns#"
   xmlns:rdf="http://www.w3.org/1999/02/22-rdf-syntax-ns#"
   xmlns:svg="http://www.w3.org/2000/svg"
   xmlns="http://www.w3.org/2000/svg"
   xmlns:sodipodi="http://sodipodi.sourceforge.net/DTD/sodipodi-0.dtd"
   xmlns:inkscape="http://www.inkscape.org/namespaces/inkscape"
   id="svg3055"
   version="1.1"
   inkscape:version="0.48.2 r9819"
   width="128"
   height="128"
   sodipodi:docname="128x128.png">
  <metadata
     id="metadata3061">
    <rdf:RDF>
      <cc:Work
         rdf:about="">
        <dc:format>image/svg+xml</dc:format>
        <dc:type
           rdf:resource="http://purl.org/dc/dcmitype/StillImage" />
        <dc:title></dc:title>
      </cc:Work>
    </rdf:RDF>
  </metadata>
  <defs
     id="defs3059" />
  <sodipodi:namedview
     pagecolor="#ffffff"
     bordercolor="#666666"
     borderopacity="1"
     objecttolerance="10"
     gridtolerance="10"
     guidetolerance="10"
     inkscape:pageopacity="0"
     inkscape:pageshadow="2"
     inkscape:window-width="1920"
     inkscape:window-height="1110"
     id="namedview3057"
     showgrid="false"
     inkscape:zoom="8.203125"
     inkscape:cx="35.233959"
     inkscape:cy="64.569021"
     inkscape:window-x="0"
     inkscape:window-y="0"
     inkscape:window-maximized="1"
     inkscape:current-layer="svg3055" />
  <g
     id="g3083"
     transform="translate(0.73142859,-0.73142855)">
    <path
       style="fill:#cfeda8"
       d="m 89.675848,114.54845 c -5.552753,-1.98021 -13.47546,-7.5052 -19.317617,-13.47136 l -5.095743,-5.203906 -3.095826,5.485506 c -1.702704,3.01702 -4.666474,6.68349 -6.586156,8.1477 -7.05655,5.3823 -18.671526,7.02628 -25.370344,3.59093 -9.2295,-4.73317 -11.243098,-11.66563 -6.788069,-23.370149 C 24.839942,86.002115 26,82.559499 26,82.076912 26,81.594325 23.75831,80.661708 21.018466,80.00443 14.548469,78.452301 8.2428743,73.825528 6.3175215,69.21751 4.2369392,64.237976 4.9792426,56.242263 7.9033546,52.135726 11.766444,46.710517 21.953112,43 32.984121,43 c 8.735067,0 9.489072,-0.691946 10.693315,-9.813197 1.933963,-14.648348 7.747709,-21.944715 18.292919,-22.957976 6.288495,-0.6042451 9.121558,0.136188 12.996423,3.396672 4.338406,3.650528 6.995175,9.347462 9.016605,19.334386 L 85.711967,41.5 l 4.882126,0.701162 c 16.006047,2.298759 26.596447,9.111789 27.912357,17.956606 0.38114,2.561773 0.39149,6.030412 0.023,7.708088 -0.93278,4.246953 -6.42278,8.7746 -11.69858,9.647935 -6.11997,1.013072 -6.25035,1.244432 -2.87058,5.093772 10.38187,11.824298 9.891,27.433927 -0.99974,31.791537 -4.816145,1.92704 -8.193387,1.96501 -13.284712,0.14935 z M 48.05659,91.809193 c 2.256703,-2.854944 5.243467,-7.467444 6.637253,-10.25 5.819648,-11.61835 7.029505,-11.469022 20.457677,2.525012 10.775128,11.229191 12.868206,12.426024 15.214702,8.699847 C 91.275073,91.34082 89.809581,89.404341 81.145264,80.599613 73.137129,72.461701 70.916769,69.615613 71.171858,67.815561 71.491417,65.560566 71.840027,65.486922 84.5,65 91.65,64.725 98.0625,64.135942 98.75,63.690983 103.18376,60.82139 95.72784,58.072843 81.431438,57.306679 75.074812,56.966019 69.605134,56.206148 69.123257,55.596773 68.646242,54.993548 68.031192,49.515963 67.756479,43.424363 67.228799,31.723388 66.101666,28 63.087261,28 59.642286,28 58.681268,30.772816 58.036594,42.572644 57.194617,57.983813 57.4614,57.739874 40.5,58.607619 27.152179,59.290492 24,60.029544 24,62.476167 c 0,2.306708 1.787465,2.779574 11.370136,3.007919 10.19538,0.242945 13.178727,0.897887 14.014821,3.076711 0.595683,1.552325 -2.220937,8.185808 -7.357403,17.327578 C 40.362399,88.851981 39,92.564481 39,94.138375 39,96.516944 39.418087,97 41.476746,97 c 1.790599,0 3.613453,-1.438041 6.579844,-5.190807 z"
       id="path3099"
       inkscape:connector-curvature="0" />
    <path
       style="fill:#afdf95"
       d="m 85.992715,111.8385 c -3.614805,-1.80634 -9.441887,-6.1206 -13.59417,-10.06487 l -7.267441,-6.903354 -1.721608,2.814862 c -5.391649,8.815452 -6.773236,10.443722 -10.926907,12.877932 -5.394865,3.1616 -15.208916,4.34241 -20.787934,2.50117 -1.977077,-0.65249 -4.967179,-2.74953 -6.64467,-4.66009 -3.923331,-4.46843 -4.032902,-9.637963 -0.411371,-19.408326 1.481707,-3.997429 2.248999,-7.448391 1.75,-7.870777 C 25.899876,80.711348 22.900825,79.587296 19.724055,78.627154 12.734434,76.514624 7.3958535,71.627002 6.424906,66.451407 3.9410017,53.211058 11.930069,45.731639 30,44.380243 c 4.125,-0.308496 8.933275,-0.995507 10.685055,-1.526691 2.985128,-0.905166 3.222167,-1.323196 3.776277,-6.65967 0.810182,-7.802626 3.141347,-15.419053 5.724403,-18.702876 4.499501,-5.720189 14.650948,-8.0859329 21.25321,-4.952954 5.815945,2.759846 10.433972,11.631641 12.006625,23.066195 0.377571,2.745271 0.994279,5.436536 1.370462,5.980588 0.376182,0.544053 4.058968,1.549398 8.183968,2.234101 9.46868,1.571692 18.9785,5.937765 21.91473,10.06131 2.73817,3.845407 3.76104,12.547191 1.8835,16.023355 -2.02785,3.754459 -6.14804,6.268788 -11.20695,6.839 -2.55046,0.287474 -4.88671,0.926399 -5.19167,1.419835 -0.30496,0.493435 0.88956,2.541819 2.65449,4.551964 4.17743,4.757832 7.92381,12.886738 7.93613,17.219876 0.0149,5.219984 -3.51237,11.611084 -7.43556,13.472754 -5.178344,2.45729 -10.447317,1.98669 -17.561955,-1.56853 z M 47.079387,94.037207 c 2.073342,-2.179536 5.73065,-7.467036 8.12735,-11.75 6.189449,-11.060704 7.053612,-11.003477 18.264339,1.209518 11.210448,12.212691 16.382494,14.995234 17.79962,9.576133 C 91.943876,90.498614 91.12139,89.39166 81.058894,79.329164 75.583271,73.853541 72,69.465435 72,68.235559 72,66.31192 72.707755,66.181718 84.96515,65.850424 95.366123,65.569305 98.257256,65.172873 99.583474,63.845961 103.40882,60.018617 96.731659,57.166682 81.96771,56.32195 75.930436,55.976522 70.596346,55.200272 70.114177,54.59695 69.632008,53.993627 69.038356,48.448047 68.794951,42.273438 68.313802,30.067815 67.025338,27 62.380196,27 58.813072,27 57.635739,30.456063 57.01943,42.73653 56.617974,50.73586 56.027796,54.400776 54.970882,55.457689 53.888171,56.5404 49.968753,57.117306 40.493126,57.588696 27.470651,58.236534 23,59.466296 23,62.400608 c 0,2.703905 2.850629,3.567557 12.859469,3.896019 14.845408,0.487184 14.956451,0.695587 7.803624,14.645614 -5.267326,10.272769 -6.633366,14.754152 -4.996426,16.391092 1.645001,1.645002 4.94068,0.353746 8.41272,-3.296126 z"
       id="path3097"
       inkscape:connector-curvature="0" />
    <path
       style="fill:#9fdb62"
       d="m 84.022199,110.25 c -3.537763,-2.0625 -9.038717,-6.37544 -12.224342,-9.5843 -3.185626,-3.208868 -6.23288,-5.683868 -6.771676,-5.500002 -0.538796,0.183866 -2.452604,2.791779 -4.252905,5.795362 -1.802804,3.00776 -5.218833,6.82458 -7.60409,8.49626 -3.756662,2.6328 -5.371548,3.08245 -12.181022,3.39169 -6.713245,0.30486 -8.434281,0.0282 -11.882965,-1.91004 C 25.241293,108.76733 22,104.05035 22,100.59892 c 0,-0.879349 1.311203,-5.676166 2.913784,-10.65959 l 2.913784,-9.060773 -2.163784,-0.838812 C 24.473703,79.578399 21.670263,78.712456 19.433918,78.115428 13.607552,76.559988 8.0780409,71.404504 6.9757973,66.5 3.9593586,53.078163 12.13908,45.964233 32.392816,44.394737 c 11.340837,-0.87882 12.180745,-1.573201 12.866235,-10.636963 0.703111,-9.296731 3.745338,-16.08302 8.64112,-19.275722 6.885171,-4.4900483 14.664742,-4.401923 20.167634,0.228455 4.250108,3.576231 6.772001,9.063839 8.736131,19.009716 L 84.5,42.308675 94,44.458974 c 10.95378,2.479358 16.66127,5.161328 20.37421,9.573901 2.1859,2.597801 2.62579,4.11023 2.62579,9.028074 0,8.203794 -2.98281,11.558623 -11.75,13.215493 -3.4375,0.649636 -6.25,1.586157 -6.25,2.081157 0,0.494999 1.61977,2.692887 3.59948,4.884195 7.0122,7.76166 9.22257,17.116266 5.76568,24.401126 C 106.26519,112.06827 102.44,114 95.776908,114 91.436751,114 89.26741,113.30793 84.022199,110.25 z M 43.970822,97.515089 C 47.288051,95.799683 49.909882,92.425473 55.5,82.677419 61.767494,71.748156 61.362317,71.702756 73.996804,84.75 84.971828,96.083568 87.815581,97.784419 90.8,94.8 93.405121,92.194879 91.803468,89.414334 81.901656,79.352057 76.347567,73.707961 71.99718,68.507299 72.234131,67.795032 72.549958,66.84566 75.910705,66.443682 84.825338,66.289003 98.041898,66.05968 101.30118,65.122328 100.81068,61.691706 100.31916,58.253919 95.695517,56.790332 83.597949,56.243114 77.494077,55.967014 71.7125,55.33353 70.75,54.835373 69.260437,54.064426 69,52.441877 69,43.932698 69,32.809855 67.5019,27.61146 63.973758,26.491671 c -1.558893,-0.494773 -2.808957,-0.100917 -4.24842,1.338546 -1.692926,1.692927 -2.193433,4.04782 -2.94466,13.854691 -0.730267,9.533243 -1.263301,12.12278 -2.759972,13.408258 C 52.64438,56.27528 48.891965,56.861349 39.476973,57.364671 25.488352,58.112498 23,58.888036 23,62.5 c 0,3.533258 2.737626,4.5 12.743129,4.5 5.896543,0 9.497659,0.455583 10.731285,1.357633 1.767804,1.29265 1.776972,1.556827 0.191528,5.519241 -0.91583,2.288884 -2.828426,6.004364 -4.250214,8.256621 C 40.036016,85.903203 37,93.146507 37,95.054298 37,95.916803 39.829542,99 40.621088,99 c 0.263028,0 1.770408,-0.66821 3.349734,-1.484911 z"
       id="path3095"
       inkscape:connector-curvature="0" />
    <path
       style="fill:#6fc74f"
       d="M 85.5,110.78355 C 82.2,108.98081 76.358518,104.46703 72.518929,100.75292 68.679339,97.038816 65.19942,94 64.785774,94 c -0.413645,0 -1.849705,2.166055 -3.191245,4.813455 -3.045061,6.009135 -9.264504,11.723435 -14.27375,13.114425 -5.300116,1.47175 -12.756591,1.33469 -16.684997,-0.3067 -7.956473,-3.32443 -9.531253,-10.39306 -5.02428,-22.55221 1.436326,-3.874997 2.367658,-7.680894 2.069628,-8.457548 C 27.3831,79.834767 25.411718,78.907457 23.300282,78.550732 10.667024,76.416357 4.1548234,66.220421 8.7663136,55.795382 11.416883,49.80333 16.675694,47.240649 29.185349,45.844943 45.472634,44.027766 46,43.704674 46,35.543406 46,23.171368 52.231052,13.837694 61.409325,12.461327 c 11.45028,-1.717076 17.218414,4.441118 20.43634,21.818308 l 1.669063,9.013143 9.342684,1.887464 c 15.801178,3.192245 22.294018,7.675422 23.585108,16.285046 1.25538,8.371452 -4.30998,14.500084 -13.21276,14.550025 -5.606971,0.03145 -5.892356,1.415728 -1.39844,6.783218 7.50628,8.965423 9.71958,16.601481 6.8067,23.483589 -2.20807,5.21688 -5.03173,7.05493 -11.425494,7.4374 C 92.281199,114.01451 90.679489,113.61301 85.5,110.78355 z M 46.747119,95.606334 c 2.064085,-1.866516 5.940936,-7.075039 8.615226,-11.574495 2.674289,-4.499457 5.527587,-8.436108 6.340662,-8.748114 0.961212,-0.368851 5.031985,2.941984 11.637655,9.465123 5.587636,5.517824 11.139239,10.530011 12.336896,11.138193 4.156687,2.110809 8.147603,-1.671454 6.406511,-6.071566 C 91.58015,88.541964 87.080086,83.459382 82.083926,78.520849 77.087767,73.582316 73,68.969816 73,68.270849 c 0,-0.954857 2.92159,-1.274514 11.75,-1.285591 13.165272,-0.01652 16.75,-1.077755 16.75,-4.95874 0,-4.294083 -5.006011,-6.199816 -17.80252,-6.777221 C 77.538866,54.971407 71.9375,54.296533 71.25,53.749577 70.409018,53.080514 70,49.676127 70,43.345437 70,32.977881 68.521439,27.884617 64.958165,25.977611 61.800108,24.28747 58.428591,26.112693 57.189722,30.183178 56.634504,32.00743 55.920278,38 55.602554,43.5 55.185092,50.726539 54.608019,53.806011 53.52186,54.603353 52.695202,55.210197 46.277105,56.02322 39.259423,56.41007 24.83189,57.20539 21.676462,58.384646 22.18962,62.789444 c 0.459156,3.941263 3.934863,5.178888 14.591765,5.195814 7.728191,0.01228 9.388319,0.293409 9.920392,1.679969 0.391594,1.020478 -1.368337,5.569884 -4.545471,11.75 C 36.948055,91.546243 35.975211,95.575211 38.2,97.8 c 2.022157,2.022157 4.623328,1.354551 8.547119,-2.193666 z"
       id="path3093"
       inkscape:connector-curvature="0" />
    <path
       style="fill:#96da0d"
       d="m 85.528173,109.72335 c -3.284505,-1.77284 -9.104757,-6.27077 -12.933894,-9.995385 -3.829136,-3.72462 -7.441814,-6.61898 -8.028173,-6.431913 -0.586358,0.187068 -2.210091,2.430939 -3.608296,4.986381 -5.4246,9.914317 -11.39714,13.659667 -21.839776,13.695607 -6.768196,0.0233 -12.123521,-2.25126 -14.130684,-6.00168 -1.686629,-3.15149 -1.093636,-9.648326 1.51265,-16.57259 1.375,-3.653039 2.5,-7.272959 2.5,-8.044268 0,-1.574224 -2.405975,-2.760996 -8.963747,-4.421458 -2.847331,-0.720959 -5.834829,-2.501326 -8.25,-4.916497 C 8.2953648,68.530659 8,67.793189 8,62.567987 8,59.450968 8.6627244,55.619112 9.4727209,54.052752 11.643151,49.855603 18.380201,47.050477 29.185349,45.844943 45.472634,44.027766 46,43.704674 46,35.543406 46,23.171368 52.231052,13.837694 61.409325,12.461327 c 11.45028,-1.717076 17.218414,4.441118 20.43634,21.818308 l 1.669063,9.013143 9.342684,1.887464 c 17.079178,3.450433 23.131578,8.319598 23.138848,18.615213 0.003,4.219504 -0.47103,5.770223 -2.33291,7.632103 C 111.62258,73.468327 103.78603,76 99.509796,76 c -2.993059,0 -2.449748,2.245476 1.876434,7.755225 7.42744,9.459447 9.13353,15.671707 6.2194,22.646205 -3.14861,7.53569 -11.846133,8.84438 -22.077457,3.32192 z M 44.850562,98.577278 c 2.902398,-1.500889 9.405186,-10.150427 13.063407,-17.376 1.197015,-2.364297 2.871858,-4.565598 3.721873,-4.891779 1.048784,-0.402456 4.810562,2.631228 11.70482,9.439349 12.10213,11.950925 13.822554,13.029454 17.226396,10.799171 C 92.317409,95.401145 93,94.042994 93,91.707197 93,88.936548 91.606333,87.072627 83.495057,78.995078 78.267339,73.789096 74.120849,69.137454 74.280635,68.658095 74.440422,68.178735 79.730146,67.679798 86.035578,67.549345 98.287686,67.295861 100.50261,66.797903 102.02419,63.954793 104.74296,58.874741 98.47684,55.915537 83.578348,55.24365 77.485257,54.968866 71.9375,54.296533 71.25,53.749577 70.409018,53.080514 70,49.676127 70,43.345437 70,32.977881 68.521439,27.884617 64.958165,25.977611 61.800108,24.28747 58.428591,26.112693 57.189722,30.183178 56.634504,32.00743 55.920278,38 55.602554,43.5 54.914062,55.418241 54.448159,55.973321 45.05887,56.061823 c -9.581043,0.09031 -20.89779,1.367655 -21.934039,2.475741 -2.138375,2.286615 -2.211722,5.375545 -0.175983,7.411284 C 24.723259,67.723259 26.255951,68 34.30887,68 c 6.019759,0 9.931835,0.455523 11.07199,1.289224 1.648142,1.205151 1.521374,1.743151 -1.943932,8.25 -8.295718,15.576976 -8.927576,17.827271 -5.865499,20.889347 1.944971,1.944969 3.734829,1.981539 7.279133,0.148707 z"
       id="path3091"
       inkscape:connector-curvature="0" />
    <path
       style="fill:#6dc908"
       d="m 85.528173,109.72335 c -3.284505,-1.77284 -9.104757,-6.27077 -12.933894,-9.995385 -3.829136,-3.72462 -7.441814,-6.61898 -8.028173,-6.431913 -0.586358,0.187068 -2.210091,2.430939 -3.608296,4.986381 -5.4246,9.914317 -11.39714,13.659667 -21.839776,13.695607 -6.768196,0.0233 -12.123521,-2.25126 -14.130684,-6.00168 -1.686629,-3.15149 -1.093636,-9.648326 1.51265,-16.57259 1.375,-3.653039 2.5,-7.272959 2.5,-8.044268 0,-1.574224 -2.405975,-2.760996 -8.963747,-4.421458 -2.847331,-0.720959 -5.834829,-2.501326 -8.25,-4.916497 C 8.3088403,68.544134 8,67.779907 8,62.652443 8,57.895414 8.4366606,56.572263 10.951982,53.70747 14.517498,49.646573 19.39471,48.035289 31.5,46.919028 36.45,46.462575 43.5375,45.782453 47.25,45.407646 l 6.75,-0.681467 0,4.668295 c 0,2.842812 -0.488798,4.833381 -1.25,5.090466 -0.6875,0.232194 -7.282177,0.817518 -14.654837,1.300719 -12.185944,0.798663 -13.572616,1.085748 -15.25,3.157229 C 20.480595,61.863006 20.516882,63.516882 23,66 c 1.713535,1.713535 3.333333,2 11.30887,2 6.019759,0 9.931835,0.455523 11.07199,1.289224 1.648142,1.205151 1.521374,1.743151 -1.943932,8.25 C 36.906824,89.800883 36,91.854401 36,94.380265 36,97.137562 38.353773,100 40.621088,100 c 4.601761,0 11.659979,-7.672838 17.292881,-18.798722 1.197015,-2.364297 2.871858,-4.565598 3.721873,-4.891779 1.048784,-0.402456 4.810562,2.631228 11.70482,9.439349 12.10213,11.950925 13.822554,13.029454 17.226396,10.799171 C 92.317409,95.401145 93,94.042994 93,91.707197 93,88.936548 91.606333,87.072627 83.495057,78.995078 78.267339,73.789096 74.120849,69.137454 74.280635,68.658095 74.440422,68.178735 79.730146,67.702539 86.035578,67.59988 98.090791,67.40361 101.39987,66.466194 102.52241,62.929398 104.11401,57.914707 97.454758,55.124533 81.510928,54.125753 70.676316,53.447032 70.028665,53.006241 71.463916,47.287749 l 0.641028,-2.554062 9.697528,0.691069 c 24.419238,1.740173 34.184638,7.129451 34.193788,18.870699 0.003,3.69559 -0.53218,5.331378 -2.33291,7.132103 C 111.62258,73.468327 103.78603,76 99.509796,76 c -2.993059,0 -2.449748,2.245476 1.876434,7.755225 7.42744,9.459447 9.13353,15.671707 6.2194,22.646205 -3.14861,7.53569 -11.846133,8.84438 -22.077457,3.32192 z"
       id="path3089"
       inkscape:connector-curvature="0" />
    <path
       style="fill:#4cba08"
       d="m 85.528173,109.72335 c -3.284505,-1.77284 -9.104757,-6.27077 -12.933894,-9.995385 -3.829136,-3.72462 -7.441814,-6.61898 -8.028173,-6.431913 -0.586358,0.187068 -2.210091,2.430939 -3.608296,4.986381 -5.4246,9.914317 -11.39714,13.659667 -21.839776,13.695607 -6.768196,0.0233 -12.123521,-2.25126 -14.130684,-6.00168 -1.6988,-3.17423 -1.107831,-9.19119 1.675201,-17.056065 1.475168,-4.168838 2.415499,-8.274517 2.089625,-9.123731 C 28.426302,78.947349 26.457181,77.933147 24.376352,77.542781 17.358413,76.226208 11,71.891072 11,68.422849 c 0,-0.389749 3.7125,-0.383163 8.25,0.01464 4.5375,0.397799 10.460828,0.659935 13.16295,0.582525 C 40.083236,68.800273 45,69.903873 45,71.845257 c 0,0.918204 -2.020181,5.71615 -4.48929,10.662103 -4.771358,9.557659 -5.477558,13.382935 -2.939281,15.921211 3.624294,3.624299 8.685457,0.74075 15.126234,-8.618017 C 55.464813,85.789749 58.47641,81.0375 59.390102,79.25 60.303794,77.4625 61.55504,76 62.17065,76 c 0.615609,0 5.666553,4.444033 11.224319,9.875629 12.122651,11.847445 13.7937,12.885995 17.172089,10.67239 C 92.282677,95.423902 93,94.035231 93,91.838069 93,89.328547 91.55875,87.213704 85.59333,80.96977 81.519662,76.705909 77.678829,72.268404 77.058146,71.108648 75.961092,69.058783 76.121378,69 82.807815,69 c 3.783,0 12.410489,-0.29747 19.172195,-0.661044 10.09081,-0.542578 12.21336,-0.419074 11.84395,0.689154 -0.89406,2.682183 -5.44104,4.999125 -11.24146,5.72815 -3.254624,0.409057 -6.09075,1.264618 -6.302501,1.901246 -0.211752,0.636628 1.721551,3.529373 4.296231,6.428322 7.87553,8.867429 10.05113,16.083593 7.0294,23.315602 -3.14861,7.53569 -11.846133,8.84438 -22.077457,3.32192 z"
       id="path3087"
       inkscape:connector-curvature="0" />
    <path
       style="fill:#2fae01"
       d="m 90.990311,111.70179 c -5.737478,-2.12662 -15.405447,-9.22567 -19.939905,-14.641586 -5.583652,-6.669059 -7.269721,-6.549699 -10.967945,0.776441 -3.830959,7.589085 -8.526238,11.663875 -15.052845,13.063585 -7.186686,1.54127 -9.543087,1.38863 -14.048847,-0.91004 -5.601711,-2.85778 -7.45403,-6.84895 -5.997138,-12.921957 C 26.763373,89.649437 29.404578,86 32.994037,86 l 3.023434,0 -0.631937,5.376799 c -0.54567,4.642799 -0.342094,5.666641 1.491265,7.5 3.939698,3.939701 8.213865,2.123291 15.95991,-6.782526 L 58.137346,86 l 6.188687,0 c 6.069776,0 6.309765,0.105596 12.490171,5.495717 6.600685,5.756659 9.609674,7.116179 13.557207,6.125411 2.914672,-0.731536 4.985749,-5.341938 4.058792,-9.03523 -0.661902,-2.637229 -0.56609,-2.711733 3.091235,-2.403741 2.978232,0.250803 4.428402,1.128373 6.875432,4.160664 2.74308,3.39914 3.10113,4.579952 3.10113,10.227269 0,5.48188 -0.35343,6.73517 -2.5,8.86524 -3.07621,3.05257 -9.211138,4.04506 -14.009689,2.26646 z"
       id="path3085"
       inkscape:connector-curvature="0" />
  </g>
</svg>
